<mxfile host="app.diagrams.net" modified="2023-10-07T02:20:15.467Z" agent="Mozilla/5.0 (Macintosh; Intel Mac OS X 10_15_7) AppleWebKit/537.36 (KHTML, like Gecko) Chrome/117.0.0.0 Safari/537.36" etag="RU9mAfZpP_ssP1xuTDI2" version="22.0.4" type="device">
  <diagram name="Page-1" id="1O8uiHeD_kZjr5PgJlwY">
    <mxGraphModel dx="1311" dy="769" grid="1" gridSize="10" guides="1" tooltips="1" connect="1" arrows="1" fold="1" page="1" pageScale="1" pageWidth="850" pageHeight="1100" math="0" shadow="0">
      <root>
        <mxCell id="0" />
        <mxCell id="1" parent="0" />
        <mxCell id="pJsyNap2zEcvuo977Ia6-7" value="" style="edgeStyle=orthogonalEdgeStyle;rounded=0;orthogonalLoop=1;jettySize=auto;html=1;" edge="1" parent="1" source="pJsyNap2zEcvuo977Ia6-1" target="pJsyNap2zEcvuo977Ia6-3">
          <mxGeometry relative="1" as="geometry" />
        </mxCell>
        <mxCell id="pJsyNap2zEcvuo977Ia6-1" value="Start" style="shape=process;whiteSpace=wrap;html=1;backgroundOutline=1;" vertex="1" parent="1">
          <mxGeometry x="290" y="130" width="120" height="40" as="geometry" />
        </mxCell>
        <mxCell id="pJsyNap2zEcvuo977Ia6-8" value="" style="edgeStyle=orthogonalEdgeStyle;rounded=0;orthogonalLoop=1;jettySize=auto;html=1;" edge="1" parent="1" source="pJsyNap2zEcvuo977Ia6-3" target="pJsyNap2zEcvuo977Ia6-4">
          <mxGeometry relative="1" as="geometry" />
        </mxCell>
        <mxCell id="pJsyNap2zEcvuo977Ia6-3" value="Senson initialization" style="rounded=0;whiteSpace=wrap;html=1;" vertex="1" parent="1">
          <mxGeometry x="290" y="200" width="120" height="40" as="geometry" />
        </mxCell>
        <mxCell id="pJsyNap2zEcvuo977Ia6-4" value="Capture Palm Gesture" style="rounded=0;whiteSpace=wrap;html=1;" vertex="1" parent="1">
          <mxGeometry x="290" y="270" width="120" height="40" as="geometry" />
        </mxCell>
        <mxCell id="pJsyNap2zEcvuo977Ia6-14" style="edgeStyle=orthogonalEdgeStyle;rounded=0;orthogonalLoop=1;jettySize=auto;html=1;entryX=0;entryY=0.5;entryDx=0;entryDy=0;" edge="1" parent="1" source="pJsyNap2zEcvuo977Ia6-9" target="pJsyNap2zEcvuo977Ia6-13">
          <mxGeometry relative="1" as="geometry">
            <mxPoint x="420" y="390" as="targetPoint" />
          </mxGeometry>
        </mxCell>
        <mxCell id="pJsyNap2zEcvuo977Ia6-9" value="Gesture = &lt;br&gt;Right?" style="rhombus;whiteSpace=wrap;html=1;" vertex="1" parent="1">
          <mxGeometry x="300" y="340" width="100" height="100" as="geometry" />
        </mxCell>
        <mxCell id="pJsyNap2zEcvuo977Ia6-13" value="Next Track/Video" style="rounded=0;whiteSpace=wrap;html=1;" vertex="1" parent="1">
          <mxGeometry x="440" y="370" width="110" height="40" as="geometry" />
        </mxCell>
        <mxCell id="pJsyNap2zEcvuo977Ia6-16" value="" style="endArrow=classic;html=1;rounded=0;exitX=0.5;exitY=1;exitDx=0;exitDy=0;" edge="1" parent="1" source="pJsyNap2zEcvuo977Ia6-4" target="pJsyNap2zEcvuo977Ia6-9">
          <mxGeometry width="50" height="50" relative="1" as="geometry">
            <mxPoint x="400" y="450" as="sourcePoint" />
            <mxPoint x="450" y="400" as="targetPoint" />
          </mxGeometry>
        </mxCell>
        <mxCell id="pJsyNap2zEcvuo977Ia6-17" style="edgeStyle=orthogonalEdgeStyle;rounded=0;orthogonalLoop=1;jettySize=auto;html=1;entryX=0;entryY=0.5;entryDx=0;entryDy=0;" edge="1" parent="1" source="pJsyNap2zEcvuo977Ia6-18" target="pJsyNap2zEcvuo977Ia6-19">
          <mxGeometry relative="1" as="geometry">
            <mxPoint x="420" y="520" as="targetPoint" />
          </mxGeometry>
        </mxCell>
        <mxCell id="pJsyNap2zEcvuo977Ia6-18" value="Gesture = &lt;br&gt;Left?" style="rhombus;whiteSpace=wrap;html=1;" vertex="1" parent="1">
          <mxGeometry x="300" y="470" width="100" height="100" as="geometry" />
        </mxCell>
        <mxCell id="pJsyNap2zEcvuo977Ia6-19" value="Previous Track/Video" style="rounded=0;whiteSpace=wrap;html=1;" vertex="1" parent="1">
          <mxGeometry x="440" y="500" width="110" height="40" as="geometry" />
        </mxCell>
        <mxCell id="pJsyNap2zEcvuo977Ia6-20" value="" style="endArrow=classic;html=1;rounded=0;exitX=0.5;exitY=1;exitDx=0;exitDy=0;" edge="1" parent="1" target="pJsyNap2zEcvuo977Ia6-18">
          <mxGeometry width="50" height="50" relative="1" as="geometry">
            <mxPoint x="350" y="440" as="sourcePoint" />
            <mxPoint x="450" y="530" as="targetPoint" />
          </mxGeometry>
        </mxCell>
        <mxCell id="pJsyNap2zEcvuo977Ia6-21" value="Yes" style="text;html=1;strokeColor=none;fillColor=none;align=center;verticalAlign=middle;whiteSpace=wrap;rounded=0;" vertex="1" parent="1">
          <mxGeometry x="380" y="360" width="60" height="30" as="geometry" />
        </mxCell>
        <mxCell id="pJsyNap2zEcvuo977Ia6-22" value="Yes" style="text;html=1;strokeColor=none;fillColor=none;align=center;verticalAlign=middle;whiteSpace=wrap;rounded=0;" vertex="1" parent="1">
          <mxGeometry x="380" y="490" width="60" height="30" as="geometry" />
        </mxCell>
        <mxCell id="pJsyNap2zEcvuo977Ia6-23" value="No" style="text;html=1;strokeColor=none;fillColor=none;align=center;verticalAlign=middle;whiteSpace=wrap;rounded=0;" vertex="1" parent="1">
          <mxGeometry x="355" y="440" width="30" height="20" as="geometry" />
        </mxCell>
        <mxCell id="pJsyNap2zEcvuo977Ia6-24" value="No" style="text;html=1;strokeColor=none;fillColor=none;align=center;verticalAlign=middle;whiteSpace=wrap;rounded=0;" vertex="1" parent="1">
          <mxGeometry x="340" y="560" width="60" height="30" as="geometry" />
        </mxCell>
        <mxCell id="pJsyNap2zEcvuo977Ia6-35" value="Gesture = &lt;br&gt;Up?" style="rhombus;whiteSpace=wrap;html=1;" vertex="1" parent="1">
          <mxGeometry x="300" y="600" width="100" height="100" as="geometry" />
        </mxCell>
        <mxCell id="pJsyNap2zEcvuo977Ia6-36" value="Volume Up" style="rounded=0;whiteSpace=wrap;html=1;" vertex="1" parent="1">
          <mxGeometry x="440" y="630" width="110" height="40" as="geometry" />
        </mxCell>
        <mxCell id="pJsyNap2zEcvuo977Ia6-37" value="" style="endArrow=classic;html=1;rounded=0;exitX=0.5;exitY=1;exitDx=0;exitDy=0;" edge="1" parent="1" target="pJsyNap2zEcvuo977Ia6-35">
          <mxGeometry width="50" height="50" relative="1" as="geometry">
            <mxPoint x="350" y="570" as="sourcePoint" />
            <mxPoint x="450" y="660" as="targetPoint" />
          </mxGeometry>
        </mxCell>
        <mxCell id="pJsyNap2zEcvuo977Ia6-38" value="Yes" style="text;html=1;strokeColor=none;fillColor=none;align=center;verticalAlign=middle;whiteSpace=wrap;rounded=0;" vertex="1" parent="1">
          <mxGeometry x="380" y="620" width="60" height="30" as="geometry" />
        </mxCell>
        <mxCell id="pJsyNap2zEcvuo977Ia6-39" value="No" style="text;html=1;strokeColor=none;fillColor=none;align=center;verticalAlign=middle;whiteSpace=wrap;rounded=0;" vertex="1" parent="1">
          <mxGeometry x="340" y="690" width="60" height="30" as="geometry" />
        </mxCell>
        <mxCell id="pJsyNap2zEcvuo977Ia6-40" value="Gesture = &lt;br&gt;Down?" style="rhombus;whiteSpace=wrap;html=1;" vertex="1" parent="1">
          <mxGeometry x="300" y="730" width="100" height="100" as="geometry" />
        </mxCell>
        <mxCell id="pJsyNap2zEcvuo977Ia6-41" value="Volume Down" style="rounded=0;whiteSpace=wrap;html=1;" vertex="1" parent="1">
          <mxGeometry x="440" y="760" width="110" height="40" as="geometry" />
        </mxCell>
        <mxCell id="pJsyNap2zEcvuo977Ia6-42" value="" style="endArrow=classic;html=1;rounded=0;exitX=0.5;exitY=1;exitDx=0;exitDy=0;" edge="1" parent="1" target="pJsyNap2zEcvuo977Ia6-40">
          <mxGeometry width="50" height="50" relative="1" as="geometry">
            <mxPoint x="350" y="700" as="sourcePoint" />
            <mxPoint x="450" y="790" as="targetPoint" />
          </mxGeometry>
        </mxCell>
        <mxCell id="pJsyNap2zEcvuo977Ia6-43" value="Yes" style="text;html=1;strokeColor=none;fillColor=none;align=center;verticalAlign=middle;whiteSpace=wrap;rounded=0;" vertex="1" parent="1">
          <mxGeometry x="380" y="750" width="60" height="30" as="geometry" />
        </mxCell>
        <mxCell id="pJsyNap2zEcvuo977Ia6-44" value="No" style="text;html=1;strokeColor=none;fillColor=none;align=center;verticalAlign=middle;whiteSpace=wrap;rounded=0;" vertex="1" parent="1">
          <mxGeometry x="340" y="820" width="60" height="30" as="geometry" />
        </mxCell>
        <mxCell id="pJsyNap2zEcvuo977Ia6-45" value="Gesture = &lt;br&gt;Forward?" style="rhombus;whiteSpace=wrap;html=1;" vertex="1" parent="1">
          <mxGeometry x="300" y="860" width="100" height="100" as="geometry" />
        </mxCell>
        <mxCell id="pJsyNap2zEcvuo977Ia6-46" value="Stop / Pause" style="rounded=0;whiteSpace=wrap;html=1;" vertex="1" parent="1">
          <mxGeometry x="440" y="890" width="110" height="40" as="geometry" />
        </mxCell>
        <mxCell id="pJsyNap2zEcvuo977Ia6-47" value="" style="endArrow=classic;html=1;rounded=0;exitX=0.5;exitY=1;exitDx=0;exitDy=0;" edge="1" parent="1" target="pJsyNap2zEcvuo977Ia6-45">
          <mxGeometry width="50" height="50" relative="1" as="geometry">
            <mxPoint x="350" y="830" as="sourcePoint" />
            <mxPoint x="450" y="920" as="targetPoint" />
          </mxGeometry>
        </mxCell>
        <mxCell id="pJsyNap2zEcvuo977Ia6-48" value="Yes" style="text;html=1;strokeColor=none;fillColor=none;align=center;verticalAlign=middle;whiteSpace=wrap;rounded=0;" vertex="1" parent="1">
          <mxGeometry x="380" y="880" width="60" height="30" as="geometry" />
        </mxCell>
        <mxCell id="pJsyNap2zEcvuo977Ia6-49" value="No" style="text;html=1;strokeColor=none;fillColor=none;align=center;verticalAlign=middle;whiteSpace=wrap;rounded=0;" vertex="1" parent="1">
          <mxGeometry x="340" y="950" width="60" height="30" as="geometry" />
        </mxCell>
        <mxCell id="pJsyNap2zEcvuo977Ia6-50" value="Gesture = &lt;br&gt;Backward?" style="rhombus;whiteSpace=wrap;html=1;" vertex="1" parent="1">
          <mxGeometry x="300" y="990" width="100" height="100" as="geometry" />
        </mxCell>
        <mxCell id="pJsyNap2zEcvuo977Ia6-51" value="Start / Resume" style="rounded=0;whiteSpace=wrap;html=1;" vertex="1" parent="1">
          <mxGeometry x="440" y="1020" width="110" height="40" as="geometry" />
        </mxCell>
        <mxCell id="pJsyNap2zEcvuo977Ia6-52" value="" style="endArrow=classic;html=1;rounded=0;exitX=0.5;exitY=1;exitDx=0;exitDy=0;" edge="1" parent="1" target="pJsyNap2zEcvuo977Ia6-50">
          <mxGeometry width="50" height="50" relative="1" as="geometry">
            <mxPoint x="350" y="960" as="sourcePoint" />
            <mxPoint x="450" y="1050" as="targetPoint" />
          </mxGeometry>
        </mxCell>
        <mxCell id="pJsyNap2zEcvuo977Ia6-53" value="Yes" style="text;html=1;strokeColor=none;fillColor=none;align=center;verticalAlign=middle;whiteSpace=wrap;rounded=0;" vertex="1" parent="1">
          <mxGeometry x="380" y="1010" width="60" height="30" as="geometry" />
        </mxCell>
        <mxCell id="pJsyNap2zEcvuo977Ia6-54" value="No" style="text;html=1;strokeColor=none;fillColor=none;align=center;verticalAlign=middle;whiteSpace=wrap;rounded=0;" vertex="1" parent="1">
          <mxGeometry x="340" y="1080" width="60" height="30" as="geometry" />
        </mxCell>
        <mxCell id="pJsyNap2zEcvuo977Ia6-55" value="" style="endArrow=classic;html=1;rounded=0;exitX=1;exitY=0.5;exitDx=0;exitDy=0;entryX=0;entryY=0.5;entryDx=0;entryDy=0;" edge="1" parent="1" source="pJsyNap2zEcvuo977Ia6-35" target="pJsyNap2zEcvuo977Ia6-36">
          <mxGeometry width="50" height="50" relative="1" as="geometry">
            <mxPoint x="400" y="690" as="sourcePoint" />
            <mxPoint x="450" y="640" as="targetPoint" />
          </mxGeometry>
        </mxCell>
        <mxCell id="pJsyNap2zEcvuo977Ia6-56" value="" style="endArrow=classic;html=1;rounded=0;entryX=1;entryY=1;entryDx=0;entryDy=0;" edge="1" parent="1" target="pJsyNap2zEcvuo977Ia6-43">
          <mxGeometry width="50" height="50" relative="1" as="geometry">
            <mxPoint x="400" y="780" as="sourcePoint" />
            <mxPoint x="420" y="760" as="targetPoint" />
          </mxGeometry>
        </mxCell>
        <mxCell id="pJsyNap2zEcvuo977Ia6-58" value="" style="endArrow=classic;html=1;rounded=0;exitX=1;exitY=0.5;exitDx=0;exitDy=0;" edge="1" parent="1" source="pJsyNap2zEcvuo977Ia6-45" target="pJsyNap2zEcvuo977Ia6-46">
          <mxGeometry width="50" height="50" relative="1" as="geometry">
            <mxPoint x="410" y="990" as="sourcePoint" />
            <mxPoint x="460" y="940" as="targetPoint" />
          </mxGeometry>
        </mxCell>
        <mxCell id="pJsyNap2zEcvuo977Ia6-60" value="" style="endArrow=classic;html=1;rounded=0;exitX=1;exitY=0.5;exitDx=0;exitDy=0;" edge="1" parent="1">
          <mxGeometry width="50" height="50" relative="1" as="geometry">
            <mxPoint x="400" y="1040" as="sourcePoint" />
            <mxPoint x="440" y="1040" as="targetPoint" />
          </mxGeometry>
        </mxCell>
        <mxCell id="pJsyNap2zEcvuo977Ia6-61" value="Stop" style="shape=process;whiteSpace=wrap;html=1;backgroundOutline=1;" vertex="1" parent="1">
          <mxGeometry x="290" y="1120" width="120" height="40" as="geometry" />
        </mxCell>
        <mxCell id="pJsyNap2zEcvuo977Ia6-63" value="" style="endArrow=classic;html=1;rounded=0;exitX=0.5;exitY=1;exitDx=0;exitDy=0;" edge="1" parent="1">
          <mxGeometry width="50" height="50" relative="1" as="geometry">
            <mxPoint x="349.68" y="1090" as="sourcePoint" />
            <mxPoint x="349.68" y="1120" as="targetPoint" />
          </mxGeometry>
        </mxCell>
        <mxCell id="pJsyNap2zEcvuo977Ia6-64" value="" style="endArrow=classic;html=1;rounded=0;entryX=1;entryY=0.5;entryDx=0;entryDy=0;" edge="1" parent="1" target="pJsyNap2zEcvuo977Ia6-61">
          <mxGeometry width="50" height="50" relative="1" as="geometry">
            <mxPoint x="580" y="390" as="sourcePoint" />
            <mxPoint x="580" y="1140" as="targetPoint" />
            <Array as="points">
              <mxPoint x="580" y="390" />
              <mxPoint x="580" y="1140" />
            </Array>
          </mxGeometry>
        </mxCell>
        <mxCell id="pJsyNap2zEcvuo977Ia6-65" value="" style="endArrow=classic;html=1;rounded=0;" edge="1" parent="1">
          <mxGeometry width="50" height="50" relative="1" as="geometry">
            <mxPoint x="550" y="520" as="sourcePoint" />
            <mxPoint x="580" y="520" as="targetPoint" />
          </mxGeometry>
        </mxCell>
        <mxCell id="pJsyNap2zEcvuo977Ia6-66" value="" style="endArrow=classic;html=1;rounded=0;" edge="1" parent="1">
          <mxGeometry width="50" height="50" relative="1" as="geometry">
            <mxPoint x="550" y="650" as="sourcePoint" />
            <mxPoint x="580" y="650" as="targetPoint" />
          </mxGeometry>
        </mxCell>
        <mxCell id="pJsyNap2zEcvuo977Ia6-67" value="" style="endArrow=classic;html=1;rounded=0;" edge="1" parent="1">
          <mxGeometry width="50" height="50" relative="1" as="geometry">
            <mxPoint x="550" y="909.35" as="sourcePoint" />
            <mxPoint x="580" y="909.35" as="targetPoint" />
          </mxGeometry>
        </mxCell>
        <mxCell id="pJsyNap2zEcvuo977Ia6-68" value="" style="endArrow=classic;html=1;rounded=0;" edge="1" parent="1">
          <mxGeometry width="50" height="50" relative="1" as="geometry">
            <mxPoint x="550" y="780" as="sourcePoint" />
            <mxPoint x="580" y="780" as="targetPoint" />
          </mxGeometry>
        </mxCell>
        <mxCell id="pJsyNap2zEcvuo977Ia6-69" value="" style="endArrow=classic;html=1;rounded=0;" edge="1" parent="1">
          <mxGeometry width="50" height="50" relative="1" as="geometry">
            <mxPoint x="550" y="1039.35" as="sourcePoint" />
            <mxPoint x="580" y="1039.35" as="targetPoint" />
          </mxGeometry>
        </mxCell>
        <mxCell id="pJsyNap2zEcvuo977Ia6-70" value="" style="endArrow=classic;html=1;rounded=0;" edge="1" parent="1">
          <mxGeometry width="50" height="50" relative="1" as="geometry">
            <mxPoint x="550" y="390" as="sourcePoint" />
            <mxPoint x="580" y="390" as="targetPoint" />
          </mxGeometry>
        </mxCell>
      </root>
    </mxGraphModel>
  </diagram>
</mxfile>
